# xmcd CD database file
#
# Track frame offsets:
#	150
#	31260
#	49627
#	79835
#	97345
#	120922
#	143743
#	153114
#	166230
#	193415
#	214342
#	223144
#
# Disc length: 3217 seconds
#
# Revision: 1
# Processed by: cddbd v1.5.1PL0 Copyright (c) Steve Scherf et al.
# Submitted via: CDex 1.51
#
DISCID=a80c8f0c
DTITLE=Courtney Pine - Resistance
DYEAR=2005
DGENRE=Jazz
TTITLE0=Good Morning
TTITLE1=Right on!
TTITLE2=Southern Skandinavian blues
TTITLE3=Soul Power U
TTITLE4=Rising Sun
TTITLE5=Sunchilde
TTITLE6=Joan of Arc
TTITLE7=And then the whole world stood still and prayed
TTITLE8=Resistance
TTITLE9=On the down low
TTITLE10=Outro Vibranium
TTITLE11=I cant say goodbye
EXTD=YEAR: 2005
EXTT0=
EXTT1=
EXTT2=
EXTT3=
EXTT4=
EXTT5=
EXTT6=
EXTT7=
EXTT8=
EXTT9=
EXTT10=
EXTT11=
PLAYORDER=
